<?xml version="1.0" standalone="no"?>
<!DOCTYPE svg PUBLIC "-//W3C//DTD SVG 20010904//EN"
 "http://www.w3.org/TR/2001/REC-SVG-20010904/DTD/svg10.dtd">
<svg version="1.0" xmlns="http://www.w3.org/2000/svg"
 width="7001.000000pt" height="4001.000000pt" viewBox="0 0 7001.000000 4001.000000"
 preserveAspectRatio="xMidYMid meet">

<g transform="translate(0.000000,4001.000000) scale(0.100000,-0.100000)"
fill="#000000" stroke="none">
<path d="M47950 37384 c-201 -35 -382 -72 -403 -81 -44 -19 -70 -52 -86 -108
-10 -35 7 -145 149 -964 89 -509 168 -940 177 -959 18 -37 72 -77 118 -86 27
-6 819 125 831 137 6 6 -47 319 -55 329 -3 3 -132 -16 -286 -43 -154 -27 -289
-48 -300 -47 -18 3 -24 30 -66 273 -26 149 -44 273 -41 276 4 3 135 27 292 54
157 26 289 52 294 56 6 5 -1 72 -18 171 -15 90 -29 164 -29 164 -1 1 -137 -22
-302 -51 -165 -29 -301 -52 -302 -51 -1 1 -23 124 -49 274 -34 197 -45 275
-36 281 6 3 138 28 294 55 156 27 286 51 290 55 4 3 -4 69 -17 146 -34 195
-31 185 -63 184 -15 -1 -191 -30 -392 -65z"/>
<path d="M46770 37178 c-90 -16 -165 -30 -166 -31 -1 -1 40 -245 92 -542 51
-297 93 -543 91 -547 -1 -3 -128 219 -281 493 -154 275 -284 506 -290 514 -10
13 -31 11 -174 -14 -89 -15 -164 -30 -167 -32 -4 -5 362 -2119 369 -2126 4 -4
326 46 334 52 1 1 -40 247 -92 546 -53 299 -94 545 -92 546 2 3 310 -545 548
-973 l28 -51 167 29 c92 16 169 30 170 32 4 4 -354 2072 -364 2107 l-8 26
-165 -29z"/>
<path d="M45220 36909 c-85 -15 -156 -28 -156 -29 -1 0 7 -46 17 -102 10 -57
93 -535 184 -1063 92 -528 168 -962 170 -964 8 -7 335 52 335 61 0 14 -360
2091 -366 2111 -6 20 7 21 -184 -14z"/>
<path d="M43726 36651 c-82 -15 -151 -32 -153 -38 -8 -22 337 -1978 354 -2011
9 -18 30 -43 45 -54 63 -44 68 -44 535 37 241 42 438 77 439 78 3 3 -55 330
-59 334 -2 2 -134 -19 -292 -47 -159 -28 -309 -52 -334 -53 l-46 -2 -26 150
c-257 1492 -283 1635 -299 1634 -8 -1 -82 -13 -164 -28z"/>
<path d="M43000 36523 c-258 -43 -260 -44 -255 -67 12 -54 185 -1069 183
-1072 -2 -1 -129 223 -283 498 -153 275 -284 506 -290 514 -8 12 -34 10 -173
-14 -89 -16 -164 -31 -166 -33 -6 -5 360 -2119 368 -2126 4 -4 324 46 333 52
2 1 -151 897 -182 1070 -3 16 -2 25 3 20 5 -6 136 -238 291 -516 l282 -506
167 29 c91 16 168 30 169 32 4 4 -354 2073 -364 2107 l-8 25 -75 -13z"/>
<path d="M40994 36176 c-234 -41 -360 -67 -378 -79 -33 -22 -64 -71 -72 -114
-4 -21 24 -206 76 -505 45 -260 117 -676 160 -925 43 -248 85 -464 94 -481 22
-42 70 -80 113 -88 44 -8 739 109 791 134 53 24 87 84 86 151 0 73 -310 1845
-328 1879 -31 59 -88 93 -154 91 -20 0 -195 -29 -388 -63z m277 -467 c15 -85
57 -327 94 -539 37 -212 80 -459 96 -549 16 -90 29 -174 29 -186 0 -20 -8 -24
-87 -38 -153 -28 -233 -40 -237 -36 -6 6 -254 1444 -250 1448 5 6 307 59 319
57 5 -1 21 -72 36 -157z"/>
<path d="M38658 35771 c-123 -21 -148 -28 -148 -43 0 -9 34 -211 75 -449 42
-237 74 -432 73 -434 -11 -6 -322 -55 -326 -50 -3 3 -40 202 -82 443 l-76 437
-40 -1 c-21 0 -99 -11 -172 -24 -111 -19 -132 -26 -128 -39 3 -9 87 -488 187
-1066 100 -577 182 -1051 183 -1052 2 -3 328 56 333 61 3 2 -30 203 -72 446
-42 243 -75 443 -72 446 2 2 76 17 165 32 l160 28 5 -26 c3 -14 38 -214 78
-445 40 -231 73 -422 75 -423 5 -6 319 50 328 58 7 7 -106 683 -305 1815 -27
153 -49 287 -49 297 0 23 -7 22 -192 -11z"/>
<path d="M36915 35469 c-148 -26 -313 -56 -365 -65 -86 -15 -99 -20 -132 -53
-70 -70 -71 -47 47 -728 58 -334 128 -741 156 -903 64 -370 63 -366 108 -411
50 -50 90 -57 216 -36 684 116 678 115 722 192 29 52 29 73 -7 275 -16 93 -30
171 -30 173 0 4 -332 -52 -337 -57 -1 -1 4 -38 11 -82 8 -43 12 -81 10 -83 -8
-9 -319 -60 -325 -53 -6 7 -249 1405 -249 1433 0 13 16 20 68 29 37 6 109 18
159 27 51 9 95 14 98 12 2 -3 10 -40 17 -82 10 -68 14 -77 33 -77 26 0 308 50
314 56 8 8 -52 340 -68 379 -22 49 -48 73 -98 91 -50 17 -38 19 -348 -37z"/>
<path d="M35320 35193 c-267 -47 -486 -86 -486 -87 -3 -2 56 -329 60 -333 2
-3 76 8 165 23 88 15 163 26 165 23 3 -3 92 -516 278 -1594 17 -99 35 -184 39
-189 4 -4 82 4 173 20 155 26 165 29 160 48 -9 41 -304 1749 -304 1765 0 14
29 22 162 44 88 15 163 29 165 31 2 2 -9 77 -24 167 -25 147 -30 164 -48 165
-11 1 -238 -36 -505 -83z"/>
<path d="M33994 34952 c-33 -21 -68 -64 -77 -97 -3 -11 -11 -110 -17 -220 -5
-110 -12 -238 -15 -285 -6 -109 -9 -172 -45 -895 -16 -330 -31 -628 -33 -662
-2 -40 1 -63 8 -63 24 1 326 57 330 62 3 2 8 57 11 121 7 115 7 116 33 121 74
16 373 66 390 66 14 0 29 -25 66 -110 42 -97 50 -109 69 -105 27 6 308 55 318
55 3 0 -5 28 -19 63 -74 185 -768 1848 -784 1879 -28 55 -72 82 -144 86 -46 2
-67 -1 -91 -16z m344 -1228 c112 -273 118 -289 98 -295 -40 -11 -245 -43 -250
-39 -4 5 5 219 18 440 3 47 6 109 6 139 0 30 2 52 5 49 3 -2 58 -135 123 -294z"/>
<path d="M54178 34890 c-72 -13 -146 -39 -223 -78 -101 -53 -227 -181 -283
-289 -67 -130 -79 -194 -97 -521 -8 -158 -17 -330 -20 -382 -3 -52 -12 -230
-20 -395 -8 -165 -17 -340 -20 -390 -3 -49 -24 -445 -45 -880 -41 -807 -75
-1481 -85 -1660 -3 -55 -14 -275 -25 -490 -11 -214 -22 -433 -25 -485 -3 -52
-30 -579 -60 -1170 -30 -591 -57 -1118 -60 -1170 -3 -52 -12 -230 -20 -395 -8
-165 -17 -347 -20 -405 -15 -300 -35 -763 -33 -765 2 -1 330 55 729 124 l727
126 6 100 c4 55 9 127 11 160 2 33 7 98 10 145 3 47 12 204 21 350 9 146 18
267 21 270 2 2 412 75 911 162 499 86 907 158 908 158 0 0 92 -213 204 -473
l204 -474 125 23 c69 12 394 68 721 124 327 57 598 106 602 109 5 4 -81 225
-191 491 -433 1057 -3155 7581 -3201 7675 -59 120 -125 204 -209 265 -139 102
-247 140 -406 145 -60 2 -131 0 -157 -5z m1236 -5293 c274 -665 496 -1210 494
-1212 -2 -2 -213 -40 -468 -84 -256 -45 -516 -90 -579 -101 -62 -12 -115 -19
-118 -17 -3 4 67 1575 82 1822 2 44 12 247 20 450 9 204 18 390 21 415 l6 45
22 -55 c13 -30 247 -599 520 -1263z"/>
<path d="M33226 34829 c-87 -15 -160 -30 -161 -31 -2 -2 -6 -57 -9 -123 -10
-175 -35 -706 -43 -875 -11 -271 14 -304 -253 336 -194 468 -237 564 -253 564
-31 0 -321 -52 -328 -59 -4 -3 -14 -152 -23 -331 -9 -179 -19 -361 -21 -405
-3 -44 -10 -172 -15 -285 -6 -112 -13 -206 -15 -209 -3 -2 -5 0 -5 6 0 14
-459 1116 -468 1125 -8 8 -327 -44 -338 -54 -6 -6 789 -1929 813 -1965 8 -12
35 -32 59 -44 84 -40 188 -8 229 71 18 35 21 73 40 480 9 179 17 350 20 380 2
30 7 131 11 225 13 314 -17 352 268 -340 287 -694 275 -675 403 -675 46 0 66
5 96 25 65 44 72 73 82 305 6 140 21 451 30 625 3 55 14 285 25 510 11 226 22
444 25 485 17 276 17 290 3 289 -7 -1 -84 -14 -172 -30z"/>
<path d="M49715 34116 c-524 -92 -699 -126 -697 -136 2 -7 -1 -16 -6 -19 -5
-3 -179 -1376 -386 -3051 -207 -1675 -380 -3058 -384 -3075 -8 -28 -17 -13
-126 205 -65 129 -189 375 -276 545 -149 292 -1685 3323 -2177 4295 -124 245
-232 450 -239 456 -8 6 -14 16 -14 23 0 7 -9 9 -22 6 -13 -3 -333 -59 -712
-124 -378 -66 -690 -121 -692 -124 -3 -3 212 -1253 796 -4612 76 -440 279
-1610 451 -2600 171 -990 313 -1802 316 -1804 4 -5 1415 237 1422 244 2 3
-154 919 -348 2037 -194 1118 -355 2047 -358 2063 -5 33 136 -239 599 -1155
171 -338 336 -664 368 -725 32 -60 191 -375 355 -700 487 -967 491 -973 620
-1078 270 -219 687 -205 937 31 109 104 180 219 212 351 17 69 9 9 111 806 47
369 88 684 90 700 3 17 43 332 90 700 47 369 88 684 90 700 12 86 125 974 125
985 0 8 2 11 4 9 2 -2 131 -735 286 -1629 400 -2307 427 -2460 432 -2466 6 -6
1410 236 1419 245 4 3 -17 143 -46 311 -78 446 -302 1736 -406 2335 -1031
5944 -1106 6370 -1120 6372 -8 1 -329 -54 -714 -121z"/>
<path d="M42735 32905 c-38 -7 -266 -47 -505 -89 -239 -41 -775 -134 -1190
-206 -415 -72 -924 -160 -1130 -196 -224 -38 -405 -75 -450 -90 -182 -63 -316
-187 -405 -377 -78 -164 -84 -293 -31 -597 19 -107 60 -341 91 -520 31 -179
65 -374 75 -435 11 -60 73 -423 140 -805 66 -382 122 -708 125 -725 8 -43 229
-1314 529 -3045 58 -333 157 -906 221 -1275 64 -368 126 -697 137 -730 62
-185 199 -338 383 -427 107 -51 206 -71 320 -65 80 5 3371 569 3381 580 1 1
-22 139 -51 307 -30 168 -85 487 -124 709 -38 222 -71 405 -73 407 -2 2 -577
-96 -1277 -217 -699 -122 -1275 -218 -1278 -215 -4 3 -80 428 -169 944 -199
1146 -234 1349 -241 1387 l-5 30 1272 220 c699 121 1275 222 1280 225 7 4
-232 1416 -241 1424 -2 2 -578 -96 -1279 -218 -701 -122 -1276 -222 -1278
-221 -2 2 -27 139 -71 395 -34 197 -229 1321 -296 1709 -25 140 -43 257 -40
260 6 5 113 24 1570 276 534 92 973 171 977 174 4 3 -48 323 -115 711 l-123
705 -29 2 c-17 1 -61 -5 -100 -12z"/>
<path d="M37375 31975 c-225 -40 -534 -94 -686 -120 l-276 -48 43 -246 c49
-283 183 -1057 528 -3046 135 -775 244 -1410 243 -1412 -2 -1 -23 35 -48 80
-213 386 -2415 4315 -2423 4324 -8 9 -183 -19 -719 -112 -390 -68 -710 -125
-711 -127 -2 -1 144 -853 325 -1893 180 -1039 342 -1969 358 -2065 17 -96 107
-614 200 -1150 93 -536 283 -1632 422 -2435 139 -803 256 -1464 260 -1469 7
-8 129 12 829 134 151 27 348 61 437 76 153 26 162 29 158 48 -3 12 -30 163
-59 336 -61 349 -325 1872 -585 3370 -93 536 -168 976 -167 977 1 2 556 -985
1232 -2193 675 -1208 1233 -2202 1239 -2209 8 -10 153 12 719 111 390 68 710
124 711 126 2 2 -89 532 -201 1178 -112 646 -222 1279 -244 1405 -53 307 -178
1031 -241 1390 -28 160 -236 1359 -462 2665 l-412 2375 -30 2 c-17 0 -214 -32
-440 -72z"/>
<path d="M31630 30978 c-377 -66 -686 -121 -688 -123 -2 -2 57 -353 131 -782
505 -2910 1430 -8238 1431 -8240 3 -3 1418 245 1422 250 3 3 -346 2030 -775
4505 -430 2475 -781 4503 -781 4506 0 12 -70 1 -740 -116z"/>
<path d="M29255 30564 c-16 -3 -694 -120 -1505 -260 -1157 -201 -1490 -262
-1546 -283 -160 -62 -291 -186 -372 -354 -63 -129 -77 -186 -76 -317 1 -91 43
-347 307 -1865 282 -1621 621 -3575 867 -4995 152 -876 159 -914 180 -974 32
-95 82 -177 150 -250 159 -169 355 -252 560 -239 100 6 2993 511 3063 534 227
75 409 287 463 539 25 120 18 189 -72 709 -47 273 -105 606 -128 740 -23 135
-47 246 -53 248 -6 2 -192 -28 -414 -66 -222 -38 -539 -93 -704 -122 -165 -28
-301 -52 -301 -53 -1 0 26 -162 60 -359 41 -237 59 -360 52 -363 -37 -12
-1392 -241 -1397 -236 -4 4 -32 153 -62 332 -31 179 -149 858 -262 1510 -113
652 -266 1536 -341 1965 -234 1353 -312 1802 -361 2078 -25 147 -44 269 -42
271 5 5 1401 247 1405 243 2 -1 7 -29 13 -62 23 -143 113 -650 115 -652 2 -3
401 66 1096 187 157 28 293 50 302 50 9 0 19 4 23 9 5 9 -233 1403 -257 1500
-17 70 -70 179 -121 248 -87 117 -256 232 -392 267 -64 16 -201 27 -250 20z"/>
<path d="M53440 24589 c-690 -120 -704 -124 -762 -203 -44 -61 -58 -102 -58
-168 0 -33 50 -347 110 -697 61 -350 149 -856 196 -1126 207 -1196 204 -1178
229 -1220 43 -73 117 -126 197 -140 27 -5 223 25 685 105 356 62 650 114 652
116 4 4 -86 534 -92 540 -2 2 -221 -34 -487 -81 -266 -46 -485 -83 -487 -81
-5 4 -153 863 -153 885 0 12 3 21 8 21 12 -1 957 163 961 166 3 3 -88 537 -93
542 -2 1 -221 -36 -487 -82 -266 -46 -486 -83 -488 -81 -8 8 -158 890 -152
897 3 3 222 43 486 89 264 45 481 83 483 84 1 1 -19 124 -45 274 -38 219 -50
271 -63 270 -8 0 -296 -50 -640 -110z"/>
<path d="M51455 24244 c-137 -24 -251 -48 -255 -53 -3 -5 -70 -536 -150 -1180
-79 -644 -147 -1167 -151 -1163 -7 7 -187 362 -564 1107 -394 779 -497 980
-509 992 -8 9 -73 1 -276 -34 -146 -25 -267 -47 -269 -49 -2 -2 108 -643 244
-1426 135 -783 269 -1556 298 -1718 28 -162 51 -296 53 -298 2 -3 537 88 542
92 1 2 -59 353 -133 781 -74 428 -134 780 -132 781 2 2 116 -221 475 -930 229
-454 247 -479 357 -511 132 -39 280 29 331 151 17 40 13 14 119 839 47 368 88
671 90 673 5 5 -6 66 144 -800 70 -406 129 -739 132 -741 10 -9 539 89 539 99
0 11 -60 362 -340 1969 -71 413 -158 911 -192 1108 -58 336 -63 357 -82 356
-12 0 -133 -21 -271 -45z"/>
<path d="M48234 23685 c-133 -23 -246 -44 -251 -46 -6 -2 53 -364 139 -859
395 -2277 448 -2584 451 -2586 1 -1 124 20 272 45 209 37 270 51 268 62 -4 26
-61 357 -187 1084 -69 396 -186 1073 -261 1505 -74 432 -138 797 -141 813 -4
20 -11 27 -27 26 -12 -1 -131 -20 -263 -44z"/>
<path d="M46360 23360 c-432 -75 -792 -139 -800 -141 -14 -3 -10 -40 31 -272
25 -147 48 -269 50 -271 2 -2 122 17 266 42 145 25 265 43 268 40 5 -5 80
-429 406 -2313 55 -319 102 -581 103 -583 3 -2 538 88 543 92 1 1 -257 1495
-459 2653 -43 248 -44 252 -23 257 11 2 134 24 273 48 237 40 253 44 248 63
-2 11 -24 134 -47 273 -35 203 -46 252 -59 251 -8 -1 -368 -63 -800 -139z"/>
<path d="M68550 22989 c-784 -153 -1645 -321 -1915 -373 -1138 -221 -3096
-602 -3425 -666 -195 -38 -843 -164 -1440 -280 -597 -116 -1245 -242 -1440
-280 -195 -38 -843 -164 -1440 -280 -597 -116 -1155 -224 -1240 -241 -965
-188 -45697 -8883 -45950 -8932 -333 -63 -2131 -413 -2975 -578 -225 -44 -489
-95 -585 -114 -296 -57 -7052 -1371 -7435 -1446 -626 -122 -670 -130 -687
-135 -17 -5 -18 -27 -18 -275 0 -253 1 -270 18 -265 9 3 217 44 462 91 485 94
495 95 572 46 78 -49 84 -68 160 -450 37 -190 68 -357 68 -370 0 -73 -58 -164
-125 -195 -19 -9 -241 -57 -492 -106 -399 -77 -464 -88 -502 -79 -61 14 -95
33 -130 76 l-31 38 0 -338 c0 -185 4 -337 9 -337 4 0 1686 327 3737 726 4150
808 3835 753 3999 700 44 -14 109 -42 144 -63 79 -47 186 -159 228 -238 50
-96 32 -13 278 -1280 36 -187 99 -511 140 -720 41 -209 104 -533 140 -720 36
-187 99 -511 140 -720 41 -209 104 -533 140 -720 36 -187 99 -511 140 -720 41
-209 104 -533 140 -720 72 -368 270 -1391 336 -1730 36 -182 41 -222 36 -300
-14 -226 -146 -424 -349 -525 -82 -40 -104 -45 -953 -210 -479 -93 -958 -187
-1065 -209 l-195 -39 1397 -1 1396 -1 7 31 c8 36 66 104 107 125 16 9 237 56
491 105 430 84 466 90 513 79 57 -12 124 -63 149 -111 12 -22 55 -200 55 -225
0 -2 162 -4 361 -4 338 0 360 1 355 17 -15 53 -56 294 -56 333 1 80 56 166
126 196 46 19 900 184 953 184 25 0 64 -9 86 -19 43 -19 100 -78 115 -116 5
-13 30 -131 55 -262 26 -131 51 -259 57 -285 l10 -48 360 0 360 0 -6 23 c-3
12 -36 174 -72 360 -73 374 -74 392 -23 471 46 74 78 84 575 180 243 47 453
86 467 86 68 0 159 -58 193 -123 20 -37 144 -677 144 -740 0 -57 -19 -98 -68
-149 -41 -43 -66 -53 -217 -83 l-110 -23 1501 -1 c1456 -1 1504 0 1600 19 54
11 262 51 461 90 200 38 524 101 720 140 197 38 684 133 1083 210 399 77 907
176 1130 220 223 43 547 106 720 140 173 34 394 76 490 95 207 41 801 156
1305 254 198 39 524 102 725 141 201 39 445 87 542 106 98 18 258 50 355 69
570 110 929 180 1085 211 98 18 258 50 355 69 570 110 929 180 1085 211 98 18
258 50 355 69 570 110 929 180 1085 211 98 18 258 50 355 69 570 110 929 180
1086 211 97 18 257 50 355 69 569 110 928 180 1085 211 97 18 258 50 357 69
99 19 261 51 360 70 249 48 453 88 1055 205 286 55 682 132 880 171 198 39
520 101 715 139 195 38 3273 637 6840 1330 3567 693 6646 1292 6843 1330 1175
229 2471 481 2597 505 69 13 460 89 870 169 410 80 1755 341 2990 581 1235
239 2254 438 2265 441 11 3 2698 526 5970 1163 l5950 1158 3 291 2 292 -32 -6
c-18 -4 -75 -15 -127 -25 -110 -22 -170 -24 -214 -6 -49 21 -98 67 -118 112
-28 64 -152 713 -145 758 14 86 68 152 148 180 24 9 143 35 266 58 l222 43 0
198 c0 167 -2 198 -15 198 -8 0 -1900 -367 -4205 -815 -3190 -620 -4209 -815
-4264 -815 -239 0 -467 147 -568 368 -28 61 -53 172 -142 637 -19 99 -69 353
-110 565 -41 212 -105 538 -141 725 -36 187 -98 502 -136 700 -71 365 -111
572 -173 893 -19 97 -69 350 -110 562 -41 212 -105 538 -141 725 -36 187 -98
502 -136 700 -39 198 -86 440 -105 538 -84 434 -108 558 -189 972 -48 242 -88
472 -90 510 -5 101 18 206 66 305 33 67 60 103 123 166 104 104 186 145 359
181 67 14 2338 456 5047 982 l4925 957 3 258 c2 242 1 257 -15 252 -50 -14
-295 -56 -332 -56 -75 0 -161 53 -196 121 -19 35 -145 682 -145 739 1 86 64
175 145 203 22 8 154 36 293 62 l252 49 0 268 c0 208 -3 268 -12 267 -7 -1
-654 -126 -1438 -280z m-60 -590 c55 -25 86 -53 110 -99 15 -30 129 -574 146
-703 9 -63 -1 -106 -37 -160 -50 -76 -80 -85 -576 -181 -243 -47 -452 -86
-465 -86 -76 0 -169 63 -201 137 -27 62 -149 712 -142 752 16 83 81 160 152
181 70 21 888 178 928 179 22 0 60 -9 85 -20z m-1952 -402 c80 -53 86 -69 163
-463 78 -394 78 -403 24 -486 -47 -72 -72 -79 -550 -173 -242 -48 -463 -87
-491 -87 -68 -1 -144 40 -183 98 -24 37 -37 87 -90 361 -72 366 -77 403 -62
459 14 51 68 115 118 137 21 10 229 55 463 102 485 95 536 100 608 52z m-2035
-361 c54 -20 104 -62 127 -107 21 -41 150 -675 150 -738 0 -85 -49 -164 -122
-199 -47 -23 -902 -192 -965 -192 -45 0 -107 27 -145 62 -54 52 -55 53 -148
536 -51 263 -51 263 -35 318 20 71 81 135 145 153 71 19 892 179 925 180 17 0
47 -6 68 -13z m-1982 -387 c52 -16 103 -61 127 -111 30 -63 155 -718 146 -766
-15 -85 -77 -158 -152 -180 -20 -6 -238 -50 -483 -98 l-446 -86 -55 16 c-62
18 -122 69 -145 123 -17 43 -143 685 -143 734 0 51 46 136 92 169 46 33 50 34
558 134 392 77 439 83 501 65z m-1997 -383 c62 -19 111 -58 137 -108 24 -47
149 -672 149 -744 0 -81 -46 -156 -120 -194 -53 -27 -912 -192 -976 -188 -69
6 -136 46 -169 102 -26 44 -35 87 -129 571 -39 201 -38 237 11 308 51 74 71
80 565 176 249 49 460 90 469 90 9 1 37 -5 63 -13z m-1943 -404 c96 -50 102
-65 174 -430 80 -406 80 -403 65 -457 -17 -59 -79 -129 -133 -149 -23 -9 -242
-54 -487 -102 -479 -92 -490 -93 -566 -49 -82 48 -90 68 -165 453 -38 191 -69
358 -69 372 0 73 55 161 124 198 37 19 890 190 957 191 33 1 62 -7 100 -27z
m-1959 -397 c70 -47 83 -83 154 -442 36 -180 65 -348 66 -373 1 -83 -57 -175
-130 -207 -47 -20 -897 -185 -952 -184 -53 0 -88 12 -131 43 -63 47 -76 84
-144 437 -36 182 -65 353 -65 379 1 83 61 174 135 202 25 10 841 172 915 182
43 6 113 -11 152 -37z m-2039 -359 c56 -20 103 -60 126 -109 13 -26 47 -180
87 -385 74 -378 74 -398 23 -475 -51 -78 -81 -87 -575 -182 -243 -47 -455 -85
-473 -85 -71 0 -158 56 -189 122 -12 25 -49 190 -87 388 -62 319 -66 349 -56
396 13 58 64 125 114 150 33 18 900 192 957 193 19 0 52 -6 73 -13z m-1937
-412 c80 -49 93 -86 169 -481 72 -376 73 -383 19 -465 -47 -73 -70 -80 -573
-178 -508 -99 -510 -99 -593 -45 -69 46 -81 80 -152 444 -36 184 -66 354 -66
378 0 80 54 164 127 196 21 10 229 55 463 101 487 97 526 100 606 50z m-1996
-377 c28 -14 57 -40 76 -69 28 -41 37 -78 93 -364 80 -404 81 -416 48 -486
-25 -55 -68 -97 -119 -117 -15 -6 -227 -49 -470 -97 -308 -60 -457 -85 -489
-82 -26 3 -68 17 -93 32 -84 49 -89 63 -168 466 l-71 362 16 52 c20 63 64 118
113 141 57 27 920 195 974 189 25 -2 65 -14 90 -27z m7745 -151 c187 -64 337
-213 399 -398 8 -25 337 -1702 731 -3727 774 -3982 737 -3774 699 -3916 -49
-192 -193 -357 -373 -431 -40 -16 -1804 -363 -5487 -1079 -5382 -1047 -5430
-1056 -5529 -1052 -65 3 -123 12 -165 25 -182 60 -335 208 -399 387 -12 33
-343 1716 -737 3740 -773 3972 -737 3771 -700 3915 51 203 209 375 406 445 38
13 267 59 1405 280 1008 196 3004 584 3295 641 6187 1207 6170 1204 6275 1200
76 -2 119 -10 180 -30z m-9735 -233 c96 -51 102 -65 176 -438 73 -371 79 -430
46 -492 -26 -50 -85 -100 -132 -113 -19 -5 -235 -48 -480 -96 -411 -80 -448
-86 -490 -75 -25 7 -62 23 -82 36 -69 46 -81 80 -153 450 -73 373 -75 404 -31
479 47 80 77 93 333 143 125 24 325 64 443 88 263 53 300 54 370 18z m-2040
-364 c25 -5 62 -22 83 -36 70 -49 80 -79 152 -444 36 -185 65 -355 65 -378 0
-79 -47 -153 -121 -191 -43 -22 -894 -190 -963 -190 -84 0 -158 47 -194 122
-10 24 -29 97 -42 163 -12 66 -42 221 -66 344 -48 249 -48 280 3 354 48 69 80
80 423 147 173 34 378 74 455 90 168 34 150 32 205 19z m-1917 -412 c43 -25
80 -68 96 -110 5 -12 39 -178 76 -367 62 -320 66 -349 55 -397 -14 -65 -73
-135 -133 -157 -75 -28 -918 -188 -965 -183 -59 6 -131 53 -164 107 -22 37
-38 104 -92 386 -36 188 -66 352 -66 365 0 78 61 167 135 200 22 9 162 41 310
69 149 29 342 68 430 86 187 39 253 39 318 1z m-1992 -385 c92 -48 100 -68
174 -453 36 -184 65 -353 65 -377 0 -76 -52 -161 -121 -197 -14 -8 -235 -54
-490 -104 -417 -81 -469 -89 -512 -80 -58 13 -124 61 -149 111 -22 42 -149
669 -150 739 -1 83 64 181 139 210 13 5 176 38 361 75 185 36 378 73 427 83
136 28 192 26 256 -7z m-2024 -367 c56 -17 118 -70 138 -120 8 -17 43 -184 80
-370 69 -352 72 -392 40 -455 -22 -42 -82 -97 -119 -109 -55 -18 -907 -181
-945 -181 -55 0 -141 47 -175 97 -25 36 -36 81 -91 360 -80 405 -80 404 -65
458 17 59 79 129 133 149 23 9 152 37 287 62 135 26 331 64 435 84 224 45 217
44 282 25z m-1962 -394 c53 -24 101 -75 120 -125 8 -23 44 -192 80 -377 62
-321 64 -338 51 -387 -7 -28 -25 -67 -39 -86 -49 -63 -98 -77 -585 -171 -424
-81 -457 -86 -498 -75 -62 18 -119 62 -145 111 -24 47 -149 672 -149 745 0 82
56 168 129 197 21 9 202 48 402 87 200 39 393 77 429 84 92 20 158 19 205 -3z
m6940 -286 c224 -47 421 -232 480 -450 8 -33 335 -1705 726 -3715 773 -3974
734 -3752 694 -3900 -52 -199 -219 -377 -410 -439 -33 -11 -2494 -493 -5470
-1072 l-5410 -1051 -105 5 c-79 3 -122 11 -172 29 -176 66 -306 189 -378 358
-16 38 -247 1210 -741 3750 -779 4003 -741 3789 -703 3933 52 202 205 370 397
437 31 11 1920 382 4199 825 2279 443 4305 837 4503 876 198 38 772 151 1275
249 582 113 939 179 980 179 36 0 97 -6 135 -14z m-8949 -90 c55 -16 125 -79
144 -130 17 -44 140 -684 140 -725 0 -78 -67 -170 -144 -200 -49 -18 -895
-180 -944 -180 -82 0 -165 57 -198 135 -6 17 -42 185 -79 374 -73 379 -74 391
-22 469 54 79 69 84 569 182 249 49 460 89 469 89 8 1 38 -6 65 -14z m-1983
-386 c49 -13 115 -73 138 -124 9 -22 47 -195 84 -383 66 -343 66 -344 50 -397
-17 -60 -49 -104 -100 -135 -47 -29 -942 -204 -999 -195 -74 11 -134 54 -167
118 -28 54 -152 698 -147 758 3 26 17 68 32 93 49 83 66 89 432 161 181 35
383 75 449 89 138 28 175 30 228 15z m-1953 -398 c47 -25 99 -84 114 -130 22
-68 136 -665 136 -712 0 -74 -55 -160 -124 -193 -42 -20 -896 -187 -956 -187
-54 0 -93 13 -137 46 -62 48 -70 75 -144 447 -77 392 -78 410 -22 491 38 55
93 82 213 106 58 11 256 49 440 85 184 36 346 66 360 68 33 5 89 -5 120 -21z
m-2009 -376 c52 -19 111 -73 133 -123 8 -21 45 -190 82 -377 60 -314 65 -344
54 -392 -14 -63 -72 -134 -128 -156 -43 -17 -904 -187 -947 -187 -76 0 -160
51 -195 119 -20 40 -150 684 -150 745 0 72 55 157 124 193 31 16 896 190 952
192 17 1 51 -6 75 -14z m-1973 -391 c42 -17 97 -67 117 -105 18 -34 145 -681
145 -737 0 -76 -52 -161 -121 -198 -15 -7 -234 -54 -488 -103 -420 -82 -466
-90 -511 -80 -61 13 -106 43 -142 94 -25 35 -37 84 -98 398 -72 371 -74 389
-39 458 19 39 78 95 113 109 13 4 132 30 267 56 134 26 327 64 429 84 207 42
273 47 328 24z m-2013 -375 c24 -6 62 -27 85 -46 71 -61 65 -39 187 -675 26
-134 26 -139 10 -191 -19 -60 -72 -122 -121 -142 -44 -18 -905 -185 -955 -185
-76 0 -155 50 -191 119 -18 35 -150 689 -150 742 0 38 19 89 47 127 51 68 74
76 433 146 184 36 389 76 455 90 144 29 145 29 200 15z m-1950 -398 c49 -22
109 -86 123 -132 6 -19 39 -178 73 -354 69 -359 71 -405 26 -474 -51 -77 -72
-84 -574 -182 -320 -63 -470 -88 -496 -84 -85 13 -162 77 -185 153 -23 77
-132 661 -132 707 0 91 65 181 150 206 79 24 876 177 925 178 29 0 67 -7 90
-18z m8215 -57 c187 -55 349 -203 415 -379 16 -43 275 -1349 741 -3743 670
-3435 717 -3684 717 -3782 0 -86 -5 -119 -26 -186 -61 -187 -213 -343 -392
-402 -33 -11 -2494 -494 -5470 -1072 -4363 -849 -5426 -1052 -5490 -1053 -299
-1 -554 210 -619 513 -9 41 -313 1605 -676 3475 -364 1870 -681 3506 -707
3635 -40 209 -45 246 -40 330 3 55 14 123 26 160 57 179 209 336 386 399 33
12 2490 493 5460 1070 2970 578 5411 1052 5425 1055 45 8 194 -3 250 -20z
m-10189 -335 c39 -20 95 -78 109 -114 5 -12 32 -141 60 -286 28 -145 57 -296
65 -336 20 -98 19 -130 -9 -189 -22 -47 -60 -86 -111 -112 -31 -16 -897 -182
-949 -182 -84 0 -170 55 -199 129 -28 69 -149 712 -143 754 13 81 78 160 150
183 11 4 221 47 466 95 466 92 490 94 561 58z m-2010 -374 c55 -20 114 -77
134 -129 8 -23 44 -194 80 -380 65 -337 65 -339 50 -392 -17 -60 -50 -103
-101 -134 -25 -16 -156 -45 -491 -111 -251 -49 -467 -89 -481 -89 -74 0 -164
58 -197 126 -20 43 -145 676 -145 737 0 61 44 145 95 180 35 24 94 38 490 116
248 49 466 89 486 90 20 0 56 -6 80 -14z m-1965 -394 c52 -24 109 -90 123
-144 19 -75 131 -663 131 -692 0 -77 -56 -167 -125 -199 -20 -10 -243 -58
-497 -107 l-461 -90 -54 16 c-66 19 -126 72 -147 128 -13 34 -67 298 -136 663
-10 52 -10 71 4 117 19 64 77 129 134 148 70 23 877 177 932 178 33 0 71 -7
96 -18z m-2021 -372 c59 -15 129 -77 149 -132 28 -75 147 -708 140 -747 -14
-77 -72 -151 -140 -178 -38 -15 -898 -182 -938 -182 -80 0 -167 54 -200 124
-19 40 -146 682 -146 739 0 72 54 157 124 194 25 13 900 190 949 192 10 1 38
-4 62 -10z m-1950 -398 c44 -20 101 -78 116 -120 6 -14 19 -69 29 -121 71
-353 110 -569 110 -602 0 -73 -54 -158 -124 -195 -45 -24 -945 -195 -986 -188
-88 17 -160 82 -184 168 -29 104 -129 643 -129 692 0 84 60 171 139 203 46 19
884 180 939 181 28 0 68 -7 90 -18z m-1974 -391 c50 -26 96 -81 112 -137 8
-27 42 -195 77 -376 l63 -328 -16 -53 c-19 -59 -72 -121 -122 -142 -47 -19
-901 -184 -954 -184 -25 0 -64 9 -86 19 -43 19 -100 78 -115 117 -13 34 -140
686 -140 719 0 77 56 167 126 200 20 9 237 57 483 105 471 94 499 97 572 60z
m55590 -55 c56 -20 114 -77 134 -129 8 -23 44 -192 79 -376 57 -292 64 -341
55 -380 -23 -102 -79 -152 -200 -180 -203 -48 -820 -163 -874 -164 -72 0 -129
26 -173 79 -38 47 -40 54 -112 425 -70 355 -72 401 -27 469 54 81 61 84 553
180 247 49 465 89 485 90 20 1 56 -6 80 -14z m-48162 -136 c25 -6 84 -29 131
-51 69 -33 100 -56 165 -122 91 -92 142 -183 169 -301 9 -38 336 -1714 726
-3723 442 -2271 710 -3674 710 -3710 -1 -263 -185 -515 -435 -596 -27 -8
-1926 -380 -4220 -826 -2293 -446 -4330 -842 -4525 -880 -1343 -262 -2113
-410 -2165 -415 -88 -9 -212 16 -310 63 -147 71 -275 215 -324 367 -11 33
-341 1707 -733 3720 -688 3537 -712 3664 -713 3775 0 99 4 126 28 195 63 185
211 335 391 395 48 16 10654 2085 10866 2120 62 10 170 5 239 -11z m-9409
-202 c81 -41 98 -78 146 -319 23 -117 54 -269 68 -337 32 -151 33 -207 5 -266
-42 -90 -98 -117 -324 -155 -66 -11 -247 -45 -401 -75 -155 -30 -306 -55 -336
-55 -73 0 -133 32 -174 92 -28 42 -38 79 -99 392 -74 379 -75 404 -31 480 48
82 63 87 568 186 301 59 466 88 493 84 22 -2 60 -15 85 -27z m55605 -56 c43
-19 100 -78 115 -116 13 -35 140 -687 140 -720 0 -76 -51 -160 -119 -195 -20
-10 -167 -44 -327 -75 -159 -31 -356 -69 -439 -86 -165 -32 -229 -36 -279 -15
-49 20 -102 71 -119 115 -14 35 -93 420 -134 653 -14 80 -14 91 2 139 21 62
77 121 131 140 72 23 878 177 934 178 33 0 71 -7 95 -18z m-57594 -328 c95
-49 100 -61 174 -442 36 -184 65 -358 65 -388 0 -87 -46 -160 -122 -195 -39
-19 -906 -188 -959 -188 -53 0 -139 48 -172 95 -23 34 -36 85 -91 365 -82 419
-79 394 -61 455 17 60 77 128 128 144 18 6 208 45 422 87 215 41 408 79 430
84 79 16 129 11 186 -17z m55574 -44 c59 -15 129 -77 149 -132 24 -62 139
-664 139 -722 0 -87 -65 -178 -145 -204 -33 -11 -757 -154 -879 -174 -51 -8
-78 -7 -112 3 -55 15 -118 66 -141 115 -20 42 -146 682 -146 740 1 73 54 156
124 192 27 14 890 189 944 192 13 1 43 -4 67 -10z m-57601 -323 c91 -28 145
-90 166 -193 78 -384 121 -634 117 -675 -6 -65 -51 -137 -105 -166 -30 -17
-137 -42 -369 -88 -569 -112 -594 -116 -632 -109 -72 14 -130 55 -161 116 -20
39 -150 682 -150 743 0 70 55 157 121 191 20 11 670 143 919 188 43 8 46 7 94
-7z m55651 -75 c43 -19 101 -78 116 -119 5 -14 32 -140 60 -281 27 -141 56
-289 64 -330 27 -134 15 -194 -52 -263 -42 -43 -84 -59 -233 -87 -58 -11 -257
-50 -443 -86 l-339 -66 -56 16 c-77 23 -135 80 -155 155 -8 30 -43 197 -76
371 -55 287 -60 322 -50 367 13 61 69 130 126 155 49 22 882 185 948 186 28 0
68 -7 90 -18z m-57599 -325 c51 -24 94 -68 113 -117 5 -15 40 -181 76 -370 47
-240 65 -353 60 -378 -14 -73 -57 -132 -121 -164 -40 -21 -897 -187 -960 -187
-27 0 -67 9 -90 19 -45 21 -99 80 -114 126 -26 83 -139 707 -133 737 15 82 79
157 153 179 73 22 874 177 920 178 28 0 64 -8 96 -23z m55624 -66 c45 -24 85
-66 104 -111 8 -20 45 -190 81 -378 61 -315 66 -347 55 -391 -14 -57 -66 -122
-119 -149 -20 -11 -131 -37 -246 -59 -116 -23 -315 -61 -442 -86 -128 -25
-251 -46 -273 -46 -75 0 -154 50 -190 120 -19 37 -150 680 -150 736 0 84 66
181 138 205 20 7 235 52 477 100 464 92 494 95 565 59z m-57575 -338 c69 -48
80 -81 151 -442 35 -182 64 -351 64 -376 0 -84 -57 -170 -133 -198 -45 -17
-905 -186 -946 -186 -72 0 -157 53 -191 119 -18 35 -150 687 -150 740 0 86 78
187 160 209 41 11 657 131 840 165 92 16 150 8 205 -31z m55556 -34 c50 -14
112 -67 133 -113 22 -45 146 -673 146 -736 0 -32 -9 -64 -28 -100 -42 -80 -85
-102 -267 -139 -604 -119 -781 -151 -814 -145 -46 9 -89 31 -124 64 -54 50
-47 21 -157 585 -40 205 -40 210 -25 263 19 66 72 126 128 147 49 19 886 184
936 185 18 1 51 -4 72 -11z m-1941 -403 c34 -18 82 -72 98 -111 6 -16 41 -182
78 -369 72 -373 73 -391 25 -467 -32 -50 -75 -81 -136 -97 -100 -26 -870 -171
-911 -171 -82 0 -156 46 -194 121 -19 36 -150 688 -150 743 0 37 33 112 63
144 12 13 38 32 58 43 29 14 814 175 939 191 32 5 94 -8 130 -27z m-2035 -366
c51 -14 99 -50 131 -98 34 -52 157 -674 152 -768 -5 -75 -41 -136 -103 -170
-46 -25 -898 -195 -975 -195 -89 1 -155 44 -193 124 -14 29 -37 114 -51 188
-14 74 -42 216 -61 315 -19 99 -35 202 -35 229 0 95 65 181 156 206 60 17 883
178 914 179 14 1 43 -4 65 -10z m-1957 -395 c46 -19 88 -58 112 -104 10 -20
41 -153 68 -295 81 -422 83 -438 68 -493 -23 -92 -82 -143 -189 -166 -220 -48
-850 -166 -883 -166 -53 0 -136 41 -166 81 -33 44 -41 71 -82 279 -20 96 -49
245 -66 330 -22 107 -30 167 -25 197 9 61 61 132 115 160 52 26 871 190 958
192 29 1 69 -6 90 -15z m-1970 -393 c81 -42 110 -92 136 -241 10 -52 37 -199
62 -326 24 -127 44 -248 44 -270 0 -49 -39 -134 -74 -162 -47 -36 -100 -50
-555 -138 -319 -61 -454 -84 -481 -79 -83 14 -159 84 -179 165 -22 88 -131
671 -131 701 1 67 56 151 123 185 46 24 925 194 975 189 23 -3 59 -13 80 -24z
m-2035 -370 c21 -5 56 -21 77 -36 67 -47 84 -95 156 -468 68 -354 70 -375 34
-447 -37 -73 -85 -100 -230 -129 -533 -105 -784 -151 -823 -151 -82 0 -159 47
-192 117 -22 45 -145 670 -145 736 0 82 46 159 116 192 32 15 897 192 949 194
11 0 37 -3 58 -8z m-1932 -409 c92 -48 99 -67 174 -451 36 -183 65 -353 65
-378 0 -81 -52 -162 -125 -194 -22 -10 -134 -36 -250 -58 -115 -22 -315 -60
-442 -85 -128 -25 -245 -46 -259 -46 -78 0 -167 57 -197 127 -28 64 -149 711
-142 760 9 61 61 132 115 160 51 25 871 190 956 192 39 1 65 -6 105 -27z
m-1995 -377 c49 -20 102 -79 117 -132 8 -27 42 -195 77 -376 60 -306 63 -331
52 -375 -24 -89 -92 -151 -189 -171 -32 -6 -244 -48 -472 -92 l-414 -80 -54
16 c-67 20 -133 81 -150 140 -25 83 -126 623 -130 690 -3 62 0 76 24 120 51
90 62 94 553 189 239 46 446 86 460 89 32 6 87 -2 126 -18z m-1975 -393 c92
-48 100 -69 175 -448 36 -181 65 -352 65 -380 1 -108 -75 -193 -195 -219 -229
-49 -851 -165 -886 -165 -79 0 -165 58 -194 130 -8 22 -45 193 -82 381 -60
312 -64 346 -54 388 17 67 46 108 98 138 38 23 122 42 487 114 242 48 461 87
486 88 33 1 62 -7 100 -27z m-1963 -394 c74 -49 84 -79 157 -458 45 -228 66
-359 62 -387 -2 -23 -16 -62 -31 -87 -48 -82 -63 -87 -573 -187 -474 -93 -500
-96 -567 -63 -77 40 -108 92 -136 232 -73 368 -110 571 -110 606 1 75 62 168
129 195 14 6 220 49 456 96 489 96 540 101 613 53z m-1995 -381 c45 -27 76
-64 95 -112 6 -16 38 -172 72 -345 33 -173 63 -327 66 -342 7 -35 -12 -105
-42 -150 -46 -71 -70 -79 -552 -172 -244 -47 -465 -86 -490 -86 -84 1 -164 53
-195 130 -14 33 -133 626 -140 700 -9 84 42 178 116 217 17 8 231 55 476 104
487 97 519 100 594 56z m-2022 -369 c19 -6 47 -21 62 -32 59 -43 72 -83 141
-437 36 -184 66 -351 66 -371 0 -74 -42 -149 -105 -188 -26 -16 -153 -45 -493
-111 -251 -49 -468 -89 -481 -89 -72 0 -163 58 -194 123 -9 19 -46 187 -83
373 -72 371 -74 407 -30 475 54 81 68 86 399 151 166 32 365 72 442 87 155 32
225 37 276 19z m-1987 -384 c54 -18 104 -64 128 -115 27 -57 150 -714 142
-757 -10 -54 -38 -105 -75 -137 -40 -33 -65 -43 -154 -60 -38 -8 -245 -48
-459 -90 l-389 -75 -54 15 c-66 19 -126 72 -147 128 -22 60 -138 663 -138 718
0 82 54 168 128 201 25 12 907 186 945 187 14 1 47 -6 73 -15z m-1953 -402
c92 -48 100 -68 174 -453 36 -184 65 -354 65 -379 -1 -83 -54 -162 -131 -194
-42 -17 -898 -186 -944 -186 -81 0 -158 48 -195 120 -19 38 -150 685 -150 743
0 45 41 128 78 159 17 14 47 32 67 38 65 21 879 178 931 179 39 1 65 -6 105
-27z m-1996 -377 c39 -16 94 -71 111 -110 14 -34 144 -691 144 -729 0 -67 -58
-159 -123 -192 -46 -25 -946 -196 -987 -189 -68 13 -137 62 -167 119 -19 36
-144 676 -144 736 0 83 43 155 113 191 25 13 205 53 492 109 459 90 491 94
561 65z m-1974 -393 c92 -48 100 -68 175 -448 35 -181 65 -352 65 -380 1 -82
-61 -176 -133 -203 -15 -6 -168 -38 -340 -71 -172 -34 -369 -72 -437 -86 -69
-13 -144 -24 -168 -24 -80 0 -155 47 -193 120 -27 53 -153 716 -145 765 12 80
69 148 145 174 56 20 880 179 931 180 33 1 62 -7 100 -27z m-1982 -386 c43
-23 80 -62 97 -103 8 -18 44 -184 80 -370 72 -369 73 -393 29 -469 -35 -59
-96 -93 -208 -115 -51 -10 -234 -45 -407 -79 -173 -33 -334 -65 -357 -70 -55
-13 -87 -13 -134 2 -46 13 -113 68 -134 108 -19 37 -145 682 -145 741 1 80 56
165 129 196 27 11 828 172 921 185 36 5 90 -6 129 -26z m-2021 -370 c121 -43
136 -77 217 -501 71 -373 72 -388 20 -467 -45 -68 -82 -81 -425 -148 -173 -34
-373 -73 -445 -87 -71 -14 -148 -25 -171 -25 -81 1 -165 56 -198 130 -8 21
-45 190 -82 377 -61 314 -65 344 -55 391 13 57 64 125 114 150 31 17 896 191
953 193 17 1 50 -5 72 -13z m-1963 -395 c50 -23 93 -66 112 -111 17 -39 143
-678 143 -723 0 -95 -69 -185 -162 -211 -29 -8 -186 -40 -348 -71 -162 -31
-349 -68 -415 -81 -66 -13 -133 -24 -150 -24 -90 0 -182 65 -209 148 -22 68
-136 666 -136 713 0 79 54 160 128 193 50 22 873 183 942 185 34 0 70 -6 95
-18z m-2008 -376 c55 -16 119 -76 140 -130 25 -62 144 -709 138 -745 -14 -75
-71 -147 -134 -172 -28 -10 -95 -24 -604 -123 -232 -45 -349 -64 -370 -59 -76
16 -143 69 -171 134 -8 19 -44 189 -80 377 -55 283 -65 348 -57 382 13 57 41
101 88 137 38 29 65 36 415 104 205 40 411 81 458 90 108 23 116 23 177 5z
m-1969 -391 c42 -17 97 -67 117 -105 18 -33 145 -682 145 -738 0 -81 -53 -162
-128 -195 -46 -20 -900 -186 -956 -186 -77 1 -169 64 -196 135 -15 39 -140
681 -140 719 0 85 69 183 147 206 75 23 878 178 926 179 26 0 64 -6 85 -15z
m-1967 -395 c42 -21 90 -72 107 -115 6 -16 41 -182 78 -369 61 -314 65 -344
54 -391 -12 -57 -63 -125 -112 -150 -16 -9 -96 -28 -176 -44 -781 -154 -774
-152 -831 -140 -66 15 -133 72 -155 133 -9 23 -45 193 -80 377 -71 368 -72
384 -21 462 48 72 71 79 550 172 242 47 449 87 460 89 30 7 86 -4 126 -24z"/>
<path d="M42185 22636 c-358 -63 -654 -120 -671 -129 -84 -44 -144 -143 -144
-242 0 -53 65 -436 415 -2453 63 -361 101 -555 114 -580 22 -43 83 -102 131
-127 61 -31 114 -29 390 20 146 25 434 75 640 111 206 36 376 67 378 69 4 4
-85 536 -90 540 -2 2 -221 -35 -487 -81 -266 -46 -486 -83 -488 -81 -5 5 -153
861 -153 884 0 16 56 28 482 101 266 46 484 85 486 87 2 2 -17 121 -42 264
-25 144 -46 266 -46 272 0 6 -11 8 -27 5 -82 -18 -948 -165 -951 -161 -8 8
-159 890 -153 896 3 3 223 44 489 90 462 79 483 84 478 103 -2 12 -23 135 -47
274 -25 148 -47 252 -53 251 -6 0 -299 -51 -651 -113z"/>
<path d="M40276 22304 c-137 -24 -251 -46 -254 -48 -2 -3 44 -280 103 -618
321 -1847 379 -2182 431 -2483 31 -181 59 -333 63 -336 3 -4 125 15 271 40
l265 47 -2 30 c-2 28 -38 236 -411 2389 -164 946 -179 1020 -197 1022 -11 1
-132 -18 -269 -43z"/>
<path d="M38940 22073 c-140 -25 -258 -48 -261 -51 -7 -7 -12 -110 -74 -1320
-18 -365 -35 -665 -37 -667 -2 -2 -40 85 -85 193 -540 1297 -680 1633 -687
1639 -4 4 -546 -85 -553 -91 -1 -1 96 -238 216 -526 220 -529 522 -1257 656
-1580 143 -345 343 -827 391 -940 56 -133 101 -187 179 -213 155 -53 326 28
365 173 5 20 41 673 80 1451 39 778 77 1537 85 1686 8 150 15 277 15 283 0 14
-4 13 -290 -37z"/>
<path d="M36155 21590 c-22 -5 -278 -50 -570 -101 -582 -100 -600 -105 -656
-182 -47 -65 -62 -118 -57 -199 9 -128 507 -2968 528 -3008 43 -84 145 -150
234 -150 57 0 1131 184 1194 205 92 30 164 120 177 220 5 40 -21 209 -125 805
-72 415 -182 1053 -246 1418 -159 918 -142 846 -212 918 -64 66 -172 96 -267
74z m-64 -1101 c48 -277 140 -805 203 -1173 64 -368 115 -670 114 -671 -5 -4
-532 -94 -535 -91 -1 1 -84 472 -183 1047 -100 574 -191 1102 -204 1172 -17
93 -20 130 -12 133 20 8 510 92 521 90 5 -1 48 -229 96 -507z"/>
<path d="M33706 21164 c-137 -24 -251 -45 -253 -48 -4 -4 -95 -721 -260 -2059
-20 -164 -40 -294 -43 -290 -4 4 -137 265 -295 578 -158 314 -316 624 -350
690 -34 66 -140 274 -234 462 -95 188 -180 351 -189 362 -17 21 -17 21 -285
-26 l-268 -47 7 -41 c3 -22 80 -465 170 -985 90 -520 221 -1276 291 -1680 70
-404 128 -736 129 -738 2 -3 537 88 542 93 2 1 -58 353 -132 781 -74 428 -134
779 -133 780 2 2 137 -261 497 -971 192 -379 218 -417 300 -457 62 -31 166
-30 233 2 63 30 124 100 142 164 12 43 195 1434 195 1483 0 9 2 14 5 11 3 -2
61 -330 130 -729 154 -889 142 -831 163 -825 9 3 127 24 262 47 135 23 249 45
254 50 5 4 -14 136 -42 301 -28 161 -119 685 -202 1163 -83 479 -194 1115
-245 1414 -52 299 -95 547 -95 552 0 14 -26 10 -294 -37z"/>
</g>
</svg>
